<?xml version="1.0" encoding="UTF-8" standalone="no"?>
<!DOCTYPE svg PUBLIC "-//W3C//DTD SVG 1.1//EN" "http://www.w3.org/Graphics/SVG/1.1/DTD/svg11.dtd">
<svg class="restaurant__card--like__svg-true" xmlns="http://www.w3.org/2000/svg" width="23" height="21" viewBox="0 0 23 21" fill="none">
    <path fill="url('#like-gradient')" stroke="url('#like-gradient')" d="M12.721,2.406L12.72,2.406L11.874,3.357L11.5,3.777L11.127,3.357L10.28,2.406L10.28,2.405C8.282,0.153 5.097,-0.17 2.976,1.802C0.482,4.125 0.345,8.324 2.585,10.85L10.899,20.215C10.899,20.215 10.899,20.215 10.899,20.215C11.237,20.596 11.759,20.596 12.098,20.215L12.098,20.215L20.412,10.849L20.412,10.849C22.656,8.323 22.544,4.113 20.05,1.791C18.166,0.036 14.701,0.049 12.721,2.406Z" />
    <defs>
        <linearGradient id="like-gradient" x1="11.0002" y1="-5.4601" x2="3.43443" y2="27.9923" gradientUnits="userSpaceOnUse">
            <stop offset="0%" stop-color="#9356DC" />
            <stop offset="100%" stop-color="#FF79DA" />
        </linearGradient>
    </defs>
</svg>