<?xml version="1.0" encoding="UTF-8" standalone="no"?>
<!DOCTYPE svg PUBLIC "-//W3C//DTD SVG 1.1//EN" "http://www.w3.org/Graphics/SVG/1.1/DTD/svg11.dtd">
<svg width="100%" height="100%" viewBox="0 0 23 21" version="1.1" xmlns="http://www.w3.org/2000/svg" xmlns:xlink="http://www.w3.org/1999/xlink" xml:space="preserve" xmlns:serif="http://www.serif.com/" style="fill-rule:evenodd;clip-rule:evenodd;">
    <path d="M12.721,2.406L12.72,2.406L11.874,3.357L11.5,3.777L11.127,3.357L10.28,2.406L10.28,2.405C8.282,0.153 5.097,-0.17 2.976,1.802C0.482,4.125 0.345,8.324 2.585,10.85L10.899,20.215C10.899,20.215 10.899,20.215 10.899,20.215C11.237,20.596 11.759,20.596 12.098,20.215L12.098,20.215L20.412,10.849L20.412,10.849C22.656,8.323 22.544,4.113 20.05,1.791C18.166,0.036 14.701,0.049 12.721,2.406Z" style="fill:none;fill-rule:nonzero;stroke:rgb(16,16,16);stroke-width:1px;"/>
</svg>
